<?xml version="1.0" encoding="utf-8"?>
<!-- Generator: Adobe Illustrator 28.1.0, SVG Export Plug-In . SVG Version: 6.00 Build 0)  -->
<svg version="1.1" id="Layer_1" xmlns="http://www.w3.org/2000/svg" xmlns:xlink="http://www.w3.org/1999/xlink" x="0px" y="0px"
	 viewBox="0 0 50 82" style="enable-background:new 0 0 50 82;" xml:space="preserve">
<style type="text/css">
	.st0{fill:#2AA2FF;}
	.st1{fill:#FD6F00;}
</style>
<g>
	<g>
		<path class="st0" d="M44,0H6C2.7,0,0,2.7,0,6v2.5v3.6v52.6v3.6V76c0,3.3,2.7,6,6,6h38c3.3,0,6-2.7,6-6v-7.7v-3.6V12.1V8.5V6
			C50,2.7,47.3,0,44,0z M46.4,72.4c0,3.3-2.7,6-6,6H9.6c-3.3,0-6-2.7-6-6v-4.1h42.8V72.4z M46.4,64.7H3.6V12.1h42.8V64.7z M3.7,8.5
			c0.5-2.8,3-4.9,5.9-4.9h30.8c2.9,0,5.4,2.1,5.9,4.9H3.7z"/>
		<path class="st0" d="M25.2,15c5.5,0,10.9,0,16.5,0c1.3,0,1.6,0.3,1.6,1.5c0,9.2,0,18.3,0,27.5c0,1.2-0.3,1.5-1.6,1.5
			c-10.9,0-21.9,0-32.8,0c-1.4,0-1.6-0.3-1.6-1.5c0-9.2,0-18.2,0-27.4c0-1.2,0.3-1.5,1.6-1.5C14.2,15,19.7,15,25.2,15L25.2,15z
			 M23.5,30.2c-4.8-4-9.4-7.9-14.2-11.8V42C14.1,38,18.8,34.1,23.5,30.2z M41,18.3c-4.8,4-9.5,7.9-14.2,11.8
			c4.8,4,9.4,7.9,14.2,11.8V18.3L41,18.3z M11.1,17c4.8,4,9.4,7.9,14.1,11.7c4.8-4,9.3-7.8,14.1-11.7C39.2,17,11.1,17,11.1,17z
			 M25.2,31.5c-4.8,4-9.3,7.8-14.1,11.7h28.2C34.5,39.3,29.8,35.4,25.2,31.5z"/>
		<path class="st0" d="M25.1,56.3c-5.3,0-10.6,0-15.9,0c-0.3,0-0.6,0.1-0.9-0.1c-0.3-0.2-0.8-0.6-0.8-1c0-0.3,0.4-0.7,0.8-1
			c0.2-0.1,0.5-0.1,0.9-0.1c10.7,0,21.4,0,32.1,0c0.2,0,0.5,0,0.8,0c0.6,0.1,1,0.4,1,1c0,0.6-0.4,0.9-1,1c-0.2,0-0.5,0-0.9,0
			C35.8,56.3,30.4,56.3,25.1,56.3L25.1,56.3z"/>
		<path class="st0" d="M25.1,61.4c-5.3,0-10.6,0-15.9,0c-0.3,0-0.6,0.1-0.9,0c-0.3-0.2-0.9-0.6-0.9-0.9c0-0.4,0.5-0.7,0.9-1
			c0.2-0.1,0.5,0,0.8,0c10.7,0,21.4,0,32.2,0c0.2,0,0.5-0.1,0.8,0c0.3,0.3,0.9,0.6,1,1c0.1,0.5-0.3,0.9-1,1c-0.2,0-0.5,0-0.9,0
			C35.8,61.4,30.5,61.4,25.1,61.4L25.1,61.4z"/>
		<path class="st0" d="M16.7,51.2c-2.6,0-5.3,0-7.9,0c-1,0-1.5-0.4-1.5-1c0-0.6,0.5-1,1.5-1c5.3,0,10.6,0,15.9,0c1,0,1.5,0.3,1.5,1
			c0,0.6-0.5,1-1.5,1C22.1,51.2,19.4,51.2,16.7,51.2z"/>
		<path class="st0" d="M25.2,77.3c-2.3,0-4.1-1.7-4.1-3.8c0-2.1,1.8-3.8,4.1-3.8s4.2,1.7,4.2,3.8C29.3,75.6,27.4,77.3,25.2,77.3
			L25.2,77.3z M27.1,73.5c0-0.9-0.9-1.8-1.9-1.8c-1.1,0-1.9,0.8-2.1,1.8c0,0.9,0.9,1.8,1.9,1.8C26.1,75.3,27.1,74.5,27.1,73.5
			L27.1,73.5z"/>
	</g>
	<g>
		<path class="st1" d="M44,0H6C2.7,0,0,2.7,0,6v2.5v3.6v52.6v3.6V76c0,3.3,2.7,6,6,6h38c3.3,0,6-2.7,6-6v-7.7v-3.6V12.1V8.5V6
			C50,2.7,47.3,0,44,0z M46.4,72.4c0,3.3-2.7,6-6,6H9.6c-3.3,0-6-2.7-6-6v-4.1h42.8V72.4z M46.4,64.7H3.6V12.1h42.8V64.7z M3.7,8.5
			c0.5-2.8,3-4.9,5.9-4.9h30.8c2.9,0,5.4,2.1,5.9,4.9H3.7z"/>
		<path d="M25.2,15c5.5,0,10.9,0,16.5,0c1.3,0,1.6,0.3,1.6,1.5c0,9.2,0,18.3,0,27.5c0,1.2-0.3,1.5-1.6,1.5c-10.9,0-21.9,0-32.8,0
			c-1.4,0-1.6-0.3-1.6-1.5c0-9.2,0-18.2,0-27.4c0-1.2,0.3-1.5,1.6-1.5C14.2,15,19.7,15,25.2,15L25.2,15z M23.5,30.2
			c-4.8-4-9.4-7.9-14.2-11.8V42C14.1,38,18.8,34.1,23.5,30.2z M41,18.3c-4.8,4-9.5,7.9-14.2,11.8c4.8,4,9.4,7.9,14.2,11.8V18.3
			L41,18.3z M11.1,17c4.8,4,9.4,7.9,14.1,11.7c4.8-4,9.3-7.8,14.1-11.7C39.2,17,11.1,17,11.1,17z M25.2,31.5
			c-4.8,4-9.3,7.8-14.1,11.7h28.2C34.5,39.3,29.8,35.4,25.2,31.5z"/>
		<path class="st1" d="M25.1,56.3c-5.3,0-10.6,0-15.9,0c-0.3,0-0.6,0.1-0.9-0.1c-0.3-0.2-0.8-0.6-0.8-1c0-0.3,0.4-0.7,0.8-1
			c0.2-0.1,0.5-0.1,0.9-0.1c10.7,0,21.4,0,32.1,0c0.2,0,0.5,0,0.8,0c0.6,0.1,1,0.4,1,1c0,0.6-0.4,0.9-1,1c-0.2,0-0.5,0-0.9,0
			C35.8,56.3,30.4,56.3,25.1,56.3L25.1,56.3z"/>
		<path class="st1" d="M25.1,61.4c-5.3,0-10.6,0-15.9,0c-0.3,0-0.6,0.1-0.9,0c-0.3-0.2-0.9-0.6-0.9-0.9c0-0.4,0.5-0.7,0.9-1
			c0.2-0.1,0.5,0,0.8,0c10.7,0,21.4,0,32.2,0c0.2,0,0.5-0.1,0.8,0c0.3,0.3,0.9,0.6,1,1c0.1,0.5-0.3,0.9-1,1c-0.2,0-0.5,0-0.9,0
			C35.8,61.4,30.5,61.4,25.1,61.4L25.1,61.4z"/>
		<path class="st1" d="M16.7,51.2c-2.6,0-5.3,0-7.9,0c-1,0-1.5-0.4-1.5-1c0-0.6,0.5-1,1.5-1c5.3,0,10.6,0,15.9,0c1,0,1.5,0.3,1.5,1
			c0,0.6-0.5,1-1.5,1C22.1,51.2,19.4,51.2,16.7,51.2z"/>
		<path d="M25.2,77.3c-2.3,0-4.1-1.7-4.1-3.8c0-2.1,1.8-3.8,4.1-3.8s4.2,1.7,4.2,3.8C29.3,75.6,27.4,77.3,25.2,77.3L25.2,77.3z
			 M27.1,73.5c0-0.9-0.9-1.8-1.9-1.8c-1.1,0-1.9,0.8-2.1,1.8c0,0.9,0.9,1.8,1.9,1.8C26.1,75.3,27.1,74.5,27.1,73.5L27.1,73.5z"/>
	</g>
</g>
</svg>
