<?xml version="1.0" encoding="utf-8"?>
<!-- Generator: Adobe Illustrator 28.1.0, SVG Export Plug-In . SVG Version: 6.00 Build 0)  -->
<svg version="1.1" id="Layer_1" xmlns="http://www.w3.org/2000/svg" xmlns:xlink="http://www.w3.org/1999/xlink" x="0px" y="0px"
	 viewBox="0 0 92 82" style="enable-background:new 0 0 92 82;" xml:space="preserve">
<style type="text/css">
	.st0{fill:#FD6F00;}
</style>
<g>
	<path class="st0" d="M92,8V74c0,0.1-0.1,0.2-0.1,0.4c-1,4.7-4.2,7.6-8.5,7.6c-1.6,0-3.1,0-4.7,0c-23.2,0-46.6,0-69.8,0
		C3.7,82,0,78.1,0,72.5c0-21,0-42.1,0-63.1c0-1.1,0.1-2.2,0.4-3.2C1.7,2.3,4.8,0,8.8,0c24.8,0,49.6,0,74.4,0c0.2,0,0.4,0,0.7,0
		c3.4,0.2,5.7,2,7.2,5.2C91.6,6.1,91.7,7,92,8L92,8z M16.4,78c0-4,0-7.7,0-11.6c0-3,0-6,0-9c0-2.9,1.7-4.8,4.4-4.8
		c1.9,0,3.9,0,5.8,0c2.9,0,4.5,1.8,4.5,5c0,6.4,0,12.9,0,19.3c0,0.4,0,0.8,0,1.2h5.4c0-0.5,0-0.8,0-1.2c0-3.4,0-6.8,0-10.2
		c0-0.5,0-0.9,0.1-1.5c0.2-1.6,1.2-2.8,2.5-3.7c-1.6-4.1-3-8.1-4.6-12.2c-1.3-3.6-0.9-6.1,1.7-8.9c3.3-3.4,6.3-7,8.3-11.6
		c0.3-0.7,0.9-1.1,1.6-1.1c0.8,0,1.2,0.5,1.7,1.2c0.6,1.2,1.1,2.6,1.9,3.5c2.1,2.8,4.4,5.6,6.7,8.4c1.9,2.2,2.5,4.9,1.5,7.7
		c-0.6,1.5-1.1,2.9-1.7,4.5c-1,2.8-2.1,5.6-3.1,8.4c1.9,1.3,2.6,3.2,2.6,5.6c-0.1,3.3,0,6.4,0,9.7v1.1h5c0-0.5,0-0.8,0-1.2
		c0-4.8,0-9.5,0-14.3c0-0.9,0.3-2.2,0.9-2.9c0.7-0.9,0.8-1.8,0.8-2.8c-0.1-2.1,0.8-3.6,2.5-4.6c0.2-0.1,0.4-0.6,0.4-0.8
		c0-1.3,0-2.7,0-4c0-1.3,0.7-2.1,1.8-2.2c1.1,0,1.8,0.8,1.8,2.2c0,1.3,0,2.6,0,3.9c0,0.6,0.1,0.8,0.6,1.1c1.1,0.6,1.9,1.6,2.2,2.9
		c0.1,0.8,0.1,1.8,0.1,2.7c0,0.4,0.1,0.7,0.3,0.9c1,1.1,1.5,2.3,1.5,3.9c0,4.7,0,9.4,0,14.1c0,0.4,0,0.7,0,1.2c3.4,0,6.5,0,9.8,0
		c3.3,0,5.2-2.1,5.2-5.7c0-14.9,0-29.6,0-44.5c0-0.4,0-0.7,0-1.1H3.6c0,0.4,0,0.7,0,1.2c0,14.8,0,29.5,0,44.3c0,0.4,0,0.7,0,0.9
		c0.1,2.3,1.9,4.7,4,4.8C10.5,78.1,13.4,78,16.4,78L16.4,78z M3.6,22.6h84.8c0-4.7,0-9.3,0-13.8c0-0.1,0-0.4-0.1-0.5
		C87.8,5.6,85.9,4,83.1,4C58.3,4,33.5,4,8.8,4C8.5,4,8.3,4,8.1,4C5.7,4.1,3.7,6.2,3.6,8.8C3.6,13.4,3.6,17.9,3.6,22.6L3.6,22.6z
		 M44.2,60.8c0-3.2,0-6.4,0-9.6c0-1.4,0.8-2.2,1.8-2.2c1,0,1.8,0.8,1.8,2.2c0,2.3,0,4.8,0,7.1c0,0.8,0,1.6,0,2.6
		c0.7-0.2,1.3,0.4,1.8-0.7c1.6-4.5,3.3-8.8,4.9-13.2c0.4-1.3,0.2-2.3-0.7-3.4c-0.8-0.8-1.6-1.5-2.2-2.5c-1.9-2.3-3.7-4.8-5.6-7.3
		c0,0-0.1,0.1-0.2,0.2c-2.1,3.4-4.6,6.4-7.3,9.3c-1.2,1.3-1.3,2.1-0.8,3.9c1.6,4.1,3.1,8.2,4.6,12.4C42.6,60.9,43.2,61.1,44.2,60.8
		L44.2,60.8z M51.9,78v-0.9c0-3.4,0-6.8,0-10.2c0-1.5-0.3-1.9-1.6-1.9c-2.9,0-5.7,0-8.6,0c-1.2,0-1.6,0.4-1.6,1.8
		c0,3.5,0,6.9,0,10.4c0,0.2,0,0.6,0,0.8L51.9,78L51.9,78z M27.5,78c0-1.2,0-2.2,0-3.3c0-5.7,0-11.4,0-17.1c0-0.6,0-1.2-0.8-1.2
		c-2,0-4,0-6.1,0c-0.2,0-0.7,0.4-0.7,0.6c-0.1,0.7,0,1.5,0,2.3c0.9,0,1.6,0,2.2,0c1.2,0,2,0.8,2,2s-0.8,2-2.1,2c-0.7,0-1.5,0-2.1,0
		v2.5c0.9,0,1.7,0,2.4,0c1.1,0,1.9,0.8,1.9,2c0,1.2-0.8,2-1.9,2c-0.8,0-1.6,0-2.4,0v2.5c0.8,0,1.5,0,2.2,0c1.2,0,2,0.8,2,2
		c0,1.2-0.8,2-2.1,2c-0.7,0-1.5,0-2.1,0v1.6L27.5,78L27.5,78z M69.9,78c0-5.3,0-10.3,0-15.5c0-0.6-0.3-0.7-0.8-0.7
		c-1.3,0-2.8,0-4.2,0c-0.8,0-0.9,0.2-0.9,1.1c0,4.8,0,9.5,0,14.3c0,0.2,0,0.5,0.1,0.8H69.9z M68.2,57.9c-0.1-0.7-0.1-1.6-0.4-1.9
		c-0.4-0.4-1.3-0.2-1.8,0c-0.3,0.2-0.2,1.2-0.3,1.8h2.6V57.9z"/>
	<path d="M27.4,8c3,0,5.5,2.7,5.5,6s-2.5,6-5.4,6c-3,0-5.5-2.7-5.5-6S24.5,8,27.4,8z M27.5,11.9c-1,0-1.8,0.8-1.9,2
		c0,1.2,0.9,2.1,1.9,2.1c1,0,1.8-0.9,1.8-2C29.3,12.8,28.4,11.9,27.5,11.9L27.5,11.9z"/>
	<path d="M18.2,13.9c0,3.3-2.5,6-5.4,6c-3,0-5.4-2.7-5.4-6.1c0-3.3,2.5-6,5.5-6C15.8,8,18.2,10.7,18.2,13.9z M11,13.9
		c0,1.2,0.8,2,1.8,2s1.8-0.8,1.8-2s-0.8-2-1.8-2S11,12.8,11,13.9L11,13.9z"/>
	<path d="M42.1,8c3,0,5.4,2.6,5.4,6c0,3.3-2.4,6-5.4,6c-3,0-5.4-2.7-5.4-6C36.7,10.5,39,8,42.1,8z M43.9,13.9c0-1.2-0.8-2-1.8-2
		c-1,0-1.8,0.8-1.8,2s0.8,2,1.8,2C43.1,15.9,43.9,15.1,43.9,13.9L43.9,13.9z"/>
	<path class="st0" d="M46,46.5c-1,0-1.8-0.9-1.8-2c0-1.2,0.9-2,1.9-2s1.8,0.9,1.7,2C47.8,45.7,46.9,46.5,46,46.5L46,46.5z"/>
</g>
</svg>
