<?xml version="1.0" encoding="utf-8"?>
<!-- Generator: Adobe Illustrator 28.1.0, SVG Export Plug-In . SVG Version: 6.00 Build 0)  -->
<svg version="1.1" id="Layer_1" xmlns="http://www.w3.org/2000/svg" xmlns:xlink="http://www.w3.org/1999/xlink" x="0px" y="0px"
	 viewBox="0 0 74 82" style="enable-background:new 0 0 74 82;" xml:space="preserve">
<style type="text/css">
	.st0{fill:#FD6F00;}
	.st1{fill:#FD6F00;stroke:#FD6F00;}
</style>
<g>
	<path class="st0" d="M61.5,0.1c0.7,0.5,1.1,1.2,1.1,2.2c0,6.5,0,12.9,0,19.5c0,0.2,0,0.5,0,0.6c-0.1,0.8-0.6,1.5-1.4,1.5
		s-1.4-0.6-1.5-1.5c0-0.8,0-1.7,0-2.6c0-2.6,0-5.1,0-7.8H14.5v4.4h0.8c10.5,0,21.1,0,31.5,0c1.6,0,2,0.5,2,2.2c0,7.2,0,14.6,0,21.8
		c0,1.6-0.4,2.1-1.9,2.1c-10.5,0-21.1,0-31.5,0c-0.3,0-0.5,0-1,0v36h45.1v-5.4h-1c-10.5,0-21,0-31.4,0c-1.7,0-2.1-0.5-2.1-2.3
		c0-7.2,0-14.5,0-21.8c0-1.5,0.5-2.1,1.9-2.1c10.5,0,21.1,0,31.5,0h1c0-0.3,0-0.6,0-0.8c0-3,0-6.2,0-9.2c0-0.9,0.3-1.5,1.1-1.7
		c1-0.3,1.8,0.5,1.8,1.7c0,3,0,6.2,0,9.2c0,0.2,0,0.6,0,0.9c0.7,0,1.4,0,2.1,0c2.5,0,5,0,7.5,0c0.8,0,1.6,0.2,2,1.2v23.9
		c-0.4,0.9-1.1,1.2-1.9,1.2c-3,0-5.8,0-8.8,0c-0.2,0-0.5,0-0.8,0c0,2.2,0,4.3,0,6.4c0,0.9-0.2,1.6-1.1,2.2H12.6
		c-0.7-0.5-1.1-1.2-1.1-2.2c0-12,0-24,0-36.2v-0.9c-3.3,0-6.6,0-9.7,0c-1.3,0-1.8-0.6-1.8-2C0,33,0,25.8,0,18.3c0-1.4,0.5-2,1.8-2
		c2.8,0,5.4,0,8.2,0c0.5,0,1.1,0,1.7,0v-0.9c0-4.4,0-8.7,0-13.2c0-0.9,0.2-1.7,1.1-2.2L61.5,0.1L61.5,0.1z M3,39.2h43.1V19.6H3V39.2
		z M28.2,70h43.1V50.3H28.2V70z M48.2,3.4H14.5v5.4h33.7V3.4z M59.6,3.4h-8.5v5.4h8.5V3.4z"/>
	<path class="st1" d="M61.2,31.6c1.1,0,2-1,2-2.2l-2.1-2.1c-1.1,0-1.9,1-1.9,2.2l0,0C59.3,30.7,60.1,31.6,61.2,31.6z M63.1,29.4
		c0-1.2-1-2.2-2.1-2.1L63.1,29.4z"/>
	<path d="M13.4,24c1.6,0,3.2,0,4.9,0c1.2,0,1.7,0.6,1.7,1.9c0,2.3,0,4.7,0,7.1c0,1.3-0.5,1.9-1.7,1.9c-3.2,0-6.4,0-9.5,0
		c-1.2,0-1.7-0.6-1.7-1.9c0-2.3,0-4.7,0-7.1c0-1.3,0.5-1.9,1.7-1.9C10.3,24,11.9,24,13.4,24z M17,31.6v-4.4H10v4.4H17z"/>
	<path d="M33,27.2c-2.3,0-4.7,0-7,0c-0.2,0-0.4,0-0.5,0c-0.8-0.1-1.5-0.7-1.5-1.6c0-0.9,0.6-1.5,1.5-1.5c1.4,0,2.6,0,4,0
		c3.4,0,6.8,0,10.2,0c1.6,0,2.3,0.5,2.2,1.6c0,1-0.7,1.6-2.2,1.6C37.6,27.2,35.3,27.2,33,27.2z"/>
	<path d="M33,31.7c2.4,0,5,0,7.4,0c0.8,0,1.5,0.7,1.5,1.6c0,0.8-0.6,1.5-1.4,1.6c-0.2,0-0.4,0-0.5,0c-4.7,0-9.3,0-14,0
		c-0.1,0-0.3,0-0.4,0c-1,0-1.6-0.7-1.6-1.6c0-0.9,0.6-1.6,1.6-1.6C28.1,31.7,30.6,31.7,33,31.7L33,31.7z"/>
	<path d="M38.6,65.4c-1.6,0-3.2,0-4.9,0c-1.1,0-1.6-0.6-1.7-1.9c0-2.3,0-4.8,0-7.1c0-1.3,0.5-1.9,1.7-1.9c3.2,0,6.5,0,9.6,0
		c1.2,0,1.7,0.6,1.7,1.9c0,2.3,0,4.7,0,7.1c0,1.3-0.5,1.9-1.7,1.9C41.8,65.4,40.2,65.4,38.6,65.4L38.6,65.4z M35,62.2h7.1v-4.3H35
		V62.2z"/>
	<path d="M58.2,57.9c-2.4,0-4.8,0-7.2,0c-1.1,0-1.7-0.6-1.7-1.5c0-0.9,0.6-1.6,1.8-1.6c4.8,0,9.6,0,14.4,0c1.1,0,1.7,0.6,1.7,1.5
		c0,0.9-0.6,1.6-1.8,1.6C63,57.9,60.6,57.9,58.2,57.9L58.2,57.9z"/>
	<path d="M58.2,65.4c-2.4,0-4.8,0-7.2,0c-1.1,0-1.8-0.6-1.8-1.6c0-0.9,0.6-1.5,1.7-1.5c4.9,0,9.6,0,14.5,0c1,0,1.6,0.6,1.7,1.4
		c0.1,0.7-0.3,1.5-1.1,1.7c-0.2,0.1-0.5,0.1-0.7,0.1C63,65.4,60.6,65.4,58.2,65.4L58.2,65.4z"/>
</g>
</svg>
