<?xml version="1.0" encoding="utf-8"?>
<!-- Generator: Adobe Illustrator 28.1.0, SVG Export Plug-In . SVG Version: 6.00 Build 0)  -->
<svg version="1.1" id="Layer_1" xmlns="http://www.w3.org/2000/svg" xmlns:xlink="http://www.w3.org/1999/xlink" x="0px" y="0px"
	 viewBox="0 0 74 82" style="enable-background:new 0 0 74 82;" xml:space="preserve">
<style type="text/css">
	.st0{fill:#FD6F00;}
</style>
<g>
	<path class="st0" d="M49.6,82H24.3c-1-0.6-1.3-1.2-1.1-2.1c0.2-0.8,0.9-1.1,2.1-1.1c1.1,0,2.2,0,3.3,0c0.5-3,1.1-5.9,1.6-8.9
		c-0.4,0-0.7,0-1.1,0c-6.5,0-12.9,0-19.4,0c-0.7,0-1.5,0-2.3-0.2C2.9,68.8,0,65.3,0,60.9c0-11.1,0-22.1,0-33.2
		c0-5.5,3.9-9.3,9.5-9.3c0.7,0,1.5,0,2.4,0c0-0.4,0-0.7,0-1.1c0-4.1,0-8.1,0-12.2c0-2.4,1.3-4.2,3.7-4.9c0.1,0,0.2-0.1,0.4-0.2
		c14.1,0,28,0,42.1,0c3.3,1.3,4.1,2.5,4.1,6c0,3.8,0,7.6,0,11.4c0,0.3,0,0.6,0,0.9c0.9,0,1.7,0,2.5,0c5.4,0,9.3,3.8,9.3,9.1
		c0,11.1,0,22.1,0,33.3c0,0.8-0.1,1.6-0.2,2.3c-1,4.2-4.5,6.8-9.1,6.8c-6.6,0-13.1,0-19.7,0c-0.3,0-0.6,0-1.1,0c0.6,3,1.1,6,1.6,8.9
		c1.3,0,2.5,0,3.7,0c1,0,1.7,0.8,1.6,1.8C50.7,81.3,50.2,81.7,49.6,82L49.6,82z M15.2,11.7v46.7h43.5V11.7H15.2z M70.5,61.7H3.3
		c0.1,0.4,0.2,0.8,0.3,1.1c0.8,2.5,3,3.9,5.9,3.9c18.4,0,36.7,0,55.1,0c0.2,0,0.5,0,0.7,0C68,66.5,70.2,64.5,70.5,61.7z M11.8,58.4
		V29.9H3.3v28.4H11.8z M70.5,58.4V29.9H62v28.4H70.5z M15.2,8.4h43.5c0-0.1,0.1-0.2,0.1-0.2c0-0.9,0-1.7,0-2.6
		c0-1.7-0.5-2.2-2.3-2.2c-13,0-26.1,0-39.1,0c-0.2,0-0.4,0-0.6,0c-0.9,0.1-1.5,0.6-1.5,1.4C15.1,6,15.2,7.2,15.2,8.4z M42.1,78.8
		c-0.5-2.9-1-5.6-1.6-8.4c0-0.2-0.3-0.4-0.5-0.4c-2.2,0-4.3,0-6.5,0c-0.5,3-1.1,5.9-1.6,8.9L42.1,78.8L42.1,78.8z M11.8,26.7v-5
		c-5-0.5-8.4,1.6-8.4,5H11.8z M62.1,26.7h8.4c-0.1-2.3-2-4.5-4.3-4.9c-1.3-0.2-2.8-0.2-4.2-0.3L62.1,26.7L62.1,26.7z"/>
	<path d="M17.2,38.6c0-4.2,0-8.4,0-12.6c0-2.7,1.5-4.2,4.2-4.2c2.4,0,4.7,0,7.1,0c2.5,0,4,1.5,4.1,3.9c0,8.6,0,17.2,0,25.7
		c0,2.4-1.6,3.9-4,3.9c-2.5,0-4.8,0-7.3,0s-4-1.6-4-3.9C17.2,47.2,17.2,42.9,17.2,38.6z M29.4,38.7c0-4.2,0-8.4,0-12.6
		c0-0.7-0.1-1.1-1-1.1c-2.3,0-4.6,0-6.9,0c-0.7,0-0.9,0.3-0.9,1c0,8.4,0,16.9,0,25.2c0,0.7,0.3,0.9,1,0.9c2.3,0,4.4,0,6.7,0
		c1.1,0,1.2-0.1,1.2-1.2C29.4,46.9,29.4,42.8,29.4,38.7L29.4,38.7z"/>
	<path d="M46,21.9c2.2,0,4.4,0,6.6,0c2.4,0,4,1.5,4,3.8c0,2.7,0,5.4,0,8.1c0,2.3-1.5,3.8-3.9,3.9c-4.4,0-8.9,0-13.3,0
		c-2.4,0-3.9-1.6-3.9-4c0-2.6,0-5.2,0-7.8c0-2.4,1.6-4,4.1-4C41.6,21.9,43.8,21.9,46,21.9L46,21.9z M38.6,29.4
		c0.7-0.6,1.3-1.1,1.8-1.5c1.4-1.1,3.3-1.1,4.8,0c0.5,0.4,1,0.8,1.5,1.2c0.6,0.6,1.1,0.5,1.6,0c1.2-1.2,2.8-1.4,4.4-0.7
		c0.1,0,0.2,0.1,0.4,0.1c0-1,0-1.9,0-2.8c0-0.5-0.3-0.7-0.8-0.7c-4.3,0-8.7,0-13,0c-0.6,0-0.8,0.2-0.8,0.8
		C38.6,27,38.6,28.1,38.6,29.4L38.6,29.4z M45.9,34.5c2.2,0,4.3,0,6.4,0c0.3,0,0.9-0.3,0.9-0.4c0.1-0.6,0.4-1.3-0.3-1.8
		c-1.1-0.7-2-0.8-2.7-0.3c-1.6,1.3-3.6,1.3-5.2,0c-0.5-0.4-0.9-0.7-1.3-1.1c-0.5-0.5-0.9-0.5-1.4,0c-0.9,0.8-2,1.6-3,2.4
		c-0.2,0.2-0.4,0.6-0.5,0.9c0.3,0.1,0.7,0.4,1,0.4C41.8,34.5,43.8,34.5,45.9,34.5L45.9,34.5z"/>
	<path d="M45.9,55.4c-2.2,0-4.3,0-6.5,0c-2.6,0-4.1-1.6-4.1-4.1c0-2.6,0-5.2,0-7.8c0-2.4,1.5-3.9,4-4c4.4,0,8.8,0,13.2,0
		c2.4,0,3.9,1.5,4,3.8c0,2.7,0,5.4,0,8.2c0,2.3-1.6,3.8-4,3.8C50.4,55.4,48.1,55.4,45.9,55.4L45.9,55.4z M51.1,52.2
		c0.4,0,0.8,0,1.1,0c1,0,1.1-0.1,1.1-1.1c0-2.4,0-4.9,0-7.3c0-0.7-0.3-1-1-1c-4.2,0-8.4,0-12.6,0c-0.8,0-1,0.3-1,1
		c0,2.2,0,4.4,0,6.6c0,1.8,0,1.8,1.8,1.7c0.1,0,0.1,0,0.3-0.1c0.1-1.7-0.2-3.5,1.1-4.9c1.4-1.4,3.2-1.3,4.9-1.3c1,0,2,0.4,2.8,1.1
		C51.3,48.4,51.1,50.3,51.1,52.2z M47.8,52.2c0-0.8,0-1.4,0-2.1c0-0.6-0.4-1-1-0.9c-0.9,0.1-2.2-0.6-2.6,0.7c-0.2,0.7,0,1.5,0,2.4
		L47.8,52.2L47.8,52.2z"/>
	<path class="st0" d="M40.1,19c-4.8,0-9.5,0-14.4,0c-1.2,0-2-0.6-2-1.5c0-0.8,0.5-1.5,1.3-1.6c0.3,0,0.6,0,1,0c9.3,0,18.7,0,28,0
		c0.3,0,0.6,0,1,0c0.8,0.1,1.3,0.7,1.3,1.5c0,0.8-0.5,1.5-1.3,1.6c-0.3,0.1-0.7,0.1-1,0.1C49.5,19,44.9,19,40.1,19L40.1,19z"/>
	<path class="st0" d="M17.2,17.4c0-0.9,0.7-1.6,1.6-1.6c0.9,0,1.6,0.7,1.6,1.5c0,0.9-0.7,1.6-1.6,1.6C18,19,17.2,18.3,17.2,17.4
		L17.2,17.4z"/>
	<path class="st0" d="M54.5,4.4c0.4,0,0.7,0,1.1,0c0.8,0.1,1.4,0.7,1.4,1.5c0.1,0.7-0.4,1.5-1.2,1.6c-1,0.1-2.1,0.1-3,0
		c-0.8-0.1-1.2-0.9-1.2-1.7c0.1-0.8,0.7-1.3,1.5-1.4C53.7,4.3,54.1,4.3,54.5,4.4L54.5,4.4L54.5,4.4z"/>
	<path d="M24.8,35.2c-0.6,0-1.2,0-1.8,0c-0.9,0-1.6-0.7-1.6-1.6c0-0.8,0.7-1.6,1.6-1.6c1.2,0,2.6,0,3.8,0c0.9,0,1.6,0.7,1.5,1.6
		c0,0.9-0.6,1.5-1.6,1.6C26.2,35.2,25.5,35.2,24.8,35.2L24.8,35.2z"/>
	<path d="M24.9,42.7c0.6,0,1.1,0,1.7,0c1,0,1.7,0.7,1.7,1.6c0,0.9-0.7,1.6-1.7,1.6c-1.2,0-2.5,0-3.7,0c-0.9,0-1.6-0.7-1.6-1.6
		c0-0.9,0.7-1.5,1.7-1.6c0.1,0,0.1,0,0.2,0C23.8,42.7,24.4,42.7,24.9,42.7L24.9,42.7z"/>
	<path d="M24.9,26.6c0.6,0,1.2,0,1.8,0c0.9,0.1,1.5,0.7,1.5,1.5c0,0.8-0.5,1.6-1.4,1.6c-1.3,0.1-2.7,0.1-4,0c-0.9,0-1.5-0.8-1.5-1.6
		c0-0.8,0.7-1.4,1.6-1.5c0.1,0,0.1,0,0.2,0C23.7,26.6,24.3,26.6,24.9,26.6L24.9,26.6z"/>
	<path d="M24.8,40.5c-0.6,0-1.2,0-1.8,0c-0.9-0.1-1.6-0.7-1.6-1.6c0-0.9,0.7-1.5,1.6-1.6c1.2,0,2.6,0,3.8,0c0.9,0,1.6,0.7,1.6,1.6
		c0,0.8-0.6,1.5-1.5,1.6c-0.1,0-0.2,0-0.2,0C26.1,40.5,25.5,40.5,24.8,40.5L24.8,40.5z"/>
	<path d="M24.9,48.1c0.6,0,1.2,0,1.8,0c0.9,0,1.5,0.7,1.6,1.5c0,0.9-0.6,1.6-1.5,1.6c-1.3,0.1-2.7,0.1-3.9,0c-0.9,0-1.6-0.8-1.5-1.6
		c0-0.9,0.7-1.5,1.6-1.5C23.7,48.1,24.3,48.1,24.9,48.1L24.9,48.1z"/>
</g>
</svg>
