<svg version="1.1" id="Layer_1" xmlns="http://www.w3.org/2000/svg" x="0" y="0" viewBox="0 0 50 82" style="enable-background:new 0 0 50 82" xml:space="preserve"><style>.st0{fill:#2aa2ff}.st1{fill:#fd6f00}</style><path class="st0" d="M44 0H6C2.7 0 0 2.7 0 6v70c0 3.3 2.7 6 6 6h38c3.3 0 6-2.7 6-6V6c0-3.3-2.7-6-6-6zm2.4 72.4c0 3.3-2.7 6-6 6H9.6c-3.3 0-6-2.7-6-6v-4.1h42.8v4.1zm0-7.7H3.6V12.1h42.8v52.6zM3.7 8.5c.5-2.8 3-4.9 5.9-4.9h30.8c2.9 0 5.4 2.1 5.9 4.9H3.7z"/><path class="st0" d="M25.2 15h16.5c1.3 0 1.6.3 1.6 1.5V44c0 1.2-.3 1.5-1.6 1.5H8.9c-1.4 0-1.6-.3-1.6-1.5V16.6c0-1.2.3-1.5 1.6-1.5 5.3-.1 10.8-.1 16.3-.1zm-1.7 15.2c-4.8-4-9.4-7.9-14.2-11.8V42c4.8-4 9.5-7.9 14.2-11.8zM41 18.3c-4.8 4-9.5 7.9-14.2 11.8 4.8 4 9.4 7.9 14.2 11.8V18.3zM11.1 17c4.8 4 9.4 7.9 14.1 11.7 4.8-4 9.3-7.8 14.1-11.7H11.1zm14.1 14.5c-4.8 4-9.3 7.8-14.1 11.7h28.2c-4.8-3.9-9.5-7.8-14.1-11.7zm-.1 24.8H9.2c-.3 0-.6.1-.9-.1-.3-.2-.8-.6-.8-1 0-.3.4-.7.8-1 .2-.1.5-.1.9-.1h32.9c.6.1 1 .4 1 1s-.4.9-1 1h-.9c-5.4.2-10.8.2-16.1.2zm0 5.1H9.2c-.3 0-.6.1-.9 0-.3-.2-.9-.6-.9-.9 0-.4.5-.7.9-1 .2-.1.5 0 .8 0h32.2c.2 0 .5-.1.8 0 .3.3.9.6 1 1 .1.5-.3.9-1 1h-.9c-5.4-.1-10.7-.1-16.1-.1zm-8.4-10.2H8.8c-1 0-1.5-.4-1.5-1s.5-1 1.5-1h15.9c1 0 1.5.3 1.5 1 0 .6-.5 1-1.5 1h-8zm8.5 26.1c-2.3 0-4.1-1.7-4.1-3.8 0-2.1 1.8-3.8 4.1-3.8s4.2 1.7 4.2 3.8c-.1 2.1-2 3.8-4.2 3.8zm1.9-3.8c0-.9-.9-1.8-1.9-1.8-1.1 0-1.9.8-2.1 1.8 0 .9.9 1.8 1.9 1.8 1.1 0 2.1-.8 2.1-1.8z"/><path class="st1" d="M44 0H6C2.7 0 0 2.7 0 6v70c0 3.3 2.7 6 6 6h38c3.3 0 6-2.7 6-6V6c0-3.3-2.7-6-6-6zm2.4 72.4c0 3.3-2.7 6-6 6H9.6c-3.3 0-6-2.7-6-6v-4.1h42.8v4.1zm0-7.7H3.6V12.1h42.8v52.6zM3.7 8.5c.5-2.8 3-4.9 5.9-4.9h30.8c2.9 0 5.4 2.1 5.9 4.9H3.7z"/><path d="M25.2 15h16.5c1.3 0 1.6.3 1.6 1.5V44c0 1.2-.3 1.5-1.6 1.5H8.9c-1.4 0-1.6-.3-1.6-1.5V16.6c0-1.2.3-1.5 1.6-1.5 5.3-.1 10.8-.1 16.3-.1zm-1.7 15.2c-4.8-4-9.4-7.9-14.2-11.8V42c4.8-4 9.5-7.9 14.2-11.8zM41 18.3c-4.8 4-9.5 7.9-14.2 11.8 4.8 4 9.4 7.9 14.2 11.8V18.3zM11.1 17c4.8 4 9.4 7.9 14.1 11.7 4.8-4 9.3-7.8 14.1-11.7H11.1zm14.1 14.5c-4.8 4-9.3 7.8-14.1 11.7h28.2c-4.8-3.9-9.5-7.8-14.1-11.7z"/><path class="st1" d="M25.1 56.3H9.2c-.3 0-.6.1-.9-.1-.3-.2-.8-.6-.8-1 0-.3.4-.7.8-1 .2-.1.5-.1.9-.1h32.9c.6.1 1 .4 1 1s-.4.9-1 1h-.9c-5.4.2-10.8.2-16.1.2zm0 5.1H9.2c-.3 0-.6.1-.9 0-.3-.2-.9-.6-.9-.9 0-.4.5-.7.9-1 .2-.1.5 0 .8 0h32.2c.2 0 .5-.1.8 0 .3.3.9.6 1 1 .1.5-.3.9-1 1h-.9c-5.4-.1-10.7-.1-16.1-.1zm-8.4-10.2H8.8c-1 0-1.5-.4-1.5-1s.5-1 1.5-1h15.9c1 0 1.5.3 1.5 1 0 .6-.5 1-1.5 1h-8z"/><path d="M25.2 77.3c-2.3 0-4.1-1.7-4.1-3.8 0-2.1 1.8-3.8 4.1-3.8s4.2 1.7 4.2 3.8c-.1 2.1-2 3.8-4.2 3.8zm1.9-3.8c0-.9-.9-1.8-1.9-1.8-1.1 0-1.9.8-2.1 1.8 0 .9.9 1.8 1.9 1.8 1.1 0 2.1-.8 2.1-1.8z"/></svg>