<svg version="1.1" id="Layer_1" xmlns="http://www.w3.org/2000/svg" x="0" y="0" viewBox="0 0 92 82" style="enable-background:new 0 0 92 82" xml:space="preserve"><style>.st0{fill:#fd6f00}</style><path class="st0" d="M92 8v66c0 .1-.1.2-.1.4-1 4.7-4.2 7.6-8.5 7.6H8.9C3.7 82 0 78.1 0 72.5V9.4c0-1.1.1-2.2.4-3.2C1.7 2.3 4.8 0 8.8 0h75.1c3.4.2 5.7 2 7.2 5.2.5.9.6 1.8.9 2.8zM16.4 78V57.4c0-2.9 1.7-4.8 4.4-4.8h5.8c2.9 0 4.5 1.8 4.5 5v20.5h5.4V66.7c0-.5 0-.9.1-1.5.2-1.6 1.2-2.8 2.5-3.7-1.6-4.1-3-8.1-4.6-12.2-1.3-3.6-.9-6.1 1.7-8.9 3.3-3.4 6.3-7 8.3-11.6.3-.7.9-1.1 1.6-1.1.8 0 1.2.5 1.7 1.2.6 1.2 1.1 2.6 1.9 3.5 2.1 2.8 4.4 5.6 6.7 8.4 1.9 2.2 2.5 4.9 1.5 7.7-.6 1.5-1.1 2.9-1.7 4.5-1 2.8-2.1 5.6-3.1 8.4 1.9 1.3 2.6 3.2 2.6 5.6-.1 3.3 0 6.4 0 9.7v1.1h5V62.3c0-.9.3-2.2.9-2.9.7-.9.8-1.8.8-2.8-.1-2.1.8-3.6 2.5-4.6.2-.1.4-.6.4-.8v-4c0-1.3.7-2.1 1.8-2.2 1.1 0 1.8.8 1.8 2.2v3.9c0 .6.1.8.6 1.1 1.1.6 1.9 1.6 2.2 2.9.1.8.1 1.8.1 2.7 0 .4.1.7.3.9 1 1.1 1.5 2.3 1.5 3.9v15.3h9.8c3.3 0 5.2-2.1 5.2-5.7V26.6h-85V73c.1 2.3 1.9 4.7 4 4.8 2.9.3 5.8.2 8.8.2zM3.6 22.6h84.8V8.8c0-.1 0-.4-.1-.5-.5-2.7-2.4-4.3-5.2-4.3h-75c-2.4.1-4.4 2.2-4.5 4.8v13.8zm40.6 38.2v-9.6c0-1.4.8-2.2 1.8-2.2s1.8.8 1.8 2.2v9.7c.7-.2 1.3.4 1.8-.7 1.6-4.5 3.3-8.8 4.9-13.2.4-1.3.2-2.3-.7-3.4-.8-.8-1.6-1.5-2.2-2.5-1.9-2.3-3.7-4.8-5.6-7.3l-.2.2c-2.1 3.4-4.6 6.4-7.3 9.3-1.2 1.3-1.3 2.1-.8 3.9 1.6 4.1 3.1 8.2 4.6 12.4.3 1.3.9 1.5 1.9 1.2zM51.9 78V66.9c0-1.5-.3-1.9-1.6-1.9h-8.6c-1.2 0-1.6.4-1.6 1.8V78h11.8zm-24.4 0V57.6c0-.6 0-1.2-.8-1.2h-6.1c-.2 0-.7.4-.7.6-.1.7 0 1.5 0 2.3h2.2c1.2 0 2 .8 2 2s-.8 2-2.1 2h-2.1v2.5h2.4c1.1 0 1.9.8 1.9 2s-.8 2-1.9 2h-2.4v2.5h2.2c1.2 0 2 .8 2 2s-.8 2-2.1 2h-2.1v1.6l7.6.1zm42.4 0V62.5c0-.6-.3-.7-.8-.7h-4.2c-.8 0-.9.2-.9 1.1v14.3c0 .2 0 .5.1.8h5.8zm-1.7-20.1c-.1-.7-.1-1.6-.4-1.9-.4-.4-1.3-.2-1.8 0-.3.2-.2 1.2-.3 1.8h2.6v.1z"/><path d="M27.4 8c3 0 5.5 2.7 5.5 6s-2.5 6-5.4 6c-3 0-5.5-2.7-5.5-6s2.5-6 5.4-6zm.1 3.9c-1 0-1.8.8-1.9 2 0 1.2.9 2.1 1.9 2.1 1 0 1.8-.9 1.8-2 0-1.2-.9-2.1-1.8-2.1zm-9.3 2c0 3.3-2.5 6-5.4 6-3 0-5.4-2.7-5.4-6.1 0-3.3 2.5-6 5.5-6 2.9.2 5.3 2.9 5.3 6.1zm-7.2 0c0 1.2.8 2 1.8 2s1.8-.8 1.8-2-.8-2-1.8-2-1.8.9-1.8 2zM42.1 8c3 0 5.4 2.6 5.4 6 0 3.3-2.4 6-5.4 6-3 0-5.4-2.7-5.4-6 0-3.5 2.3-6 5.4-6zm1.8 5.9c0-1.2-.8-2-1.8-2s-1.8.8-1.8 2 .8 2 1.8 2 1.8-.8 1.8-2z"/><path class="st0" d="M46 46.5c-1 0-1.8-.9-1.8-2 0-1.2.9-2 1.9-2s1.8.9 1.7 2c0 1.2-.9 2-1.8 2z"/></svg>