<svg width="279" height="67" fill="none" xmlns="http://www.w3.org/2000/svg"><path class="logo-text" d="M128.856 51h-7.296l-.048-20.16-9.888 16.608h-3.504l-9.84-16.176V51h-7.296V17.4h6.432l12.576 20.88 12.384-20.88h6.384l.096 33.6Zm28.084-25.248h3.408V51h-3.264v-4.608c-1.776 3.072-5.04 4.848-9.072 4.848-6.432 0-10.656-3.6-10.656-10.848v-14.64h3.408v14.304c0 5.376 2.784 8.112 7.584 8.112 5.28 0 8.592-3.408 8.592-9.168V25.752Zm44.441-.192c6.144 0 10.176 3.552 10.176 10.8V51h-3.408V36.696c0-5.328-2.688-8.064-7.248-8.064-5.184 0-8.448 3.36-8.448 9.12V51h-3.408V36.696c0-5.328-2.688-8.064-7.296-8.064-5.136 0-8.448 3.36-8.448 9.12V51h-3.408V25.752h3.264v4.608c1.776-3.024 5.04-4.8 9.264-4.8 4.176 0 7.44 1.776 8.976 5.328 1.824-3.264 5.424-5.328 9.984-5.328Zm28.25 0c6.528 0 10.224 3.264 10.224 9.792V51h-3.264v-3.936c-1.536 2.592-4.512 4.176-8.688 4.176-5.712 0-9.216-2.976-9.216-7.344 0-3.888 2.496-7.152 9.744-7.152h8.016v-1.536c0-4.32-2.448-6.672-7.152-6.672-3.264 0-6.336 1.152-8.4 2.976l-1.536-2.544c2.544-2.16 6.288-3.408 10.272-3.408Zm-1.2 22.992c3.84 0 6.672-1.824 8.016-5.136v-4.128h-7.92c-4.896 0-6.48 1.92-6.48 4.512 0 2.928 2.352 4.752 6.384 4.752Zm22.408-28.32c-1.392 0-2.496-1.104-2.496-2.448 0-1.296 1.104-2.4 2.496-2.4s2.496 1.056 2.496 2.352c0 1.392-1.056 2.496-2.496 2.496ZM249.111 51V25.752h3.408V51h-3.408Zm16.155-20.304c1.584-3.36 4.8-5.136 9.456-5.136v3.312c-.288 0-.576-.048-.816-.048-5.28 0-8.496 3.36-8.496 9.312V51h-3.408V25.752h3.264v4.944Z" fill="#FBFBFB"/><path fill-rule="evenodd" clip-rule="evenodd" d="M33.5 67C52.002 67 67 52.002 67 33.5c0-2.213-.215-4.377-.624-6.47l-.305.554C62.399 34.28 58.775 41 55.967 48.128c-.504 1.296-1.008 2.592-1.344 3.936-.072.288-.12.552-.144.84-.024.528-.168.648-.696.504-.96-.264-1.776-1.296-1.896-2.424-.12-1.224.12-2.4.432-3.576 1.368-5.28 3.504-10.272 5.904-15.144.737-1.53 1.53-3.031 2.327-4.537.24-.455.481-.91.72-1.367.097-.192.193-.384.217-.648-.144.144-.288.288-.408.432l-.001.001c-4.32 5.136-8.64 10.271-12.96 15.383a50.208 50.208 0 0 1-3.791 4.032c-.864.816-1.752 1.632-3.096 1.08-1.536-.6-2.712-1.56-2.976-3.312-.264-1.68.024-3.336.456-4.944 1.224-4.488 3.192-8.664 5.328-12.768 1.464-2.808 3.072-5.544 5.064-8.016 1.152-1.416 1.824-1.536 3.384-.576.065.046.13.09.195.133.174.117.344.231.5.371.913.792 1.033 1.296.457 2.352a405.911 405.911 0 0 1-1.756 3.186c-1.384 2.493-2.765 4.982-4.028 7.542-1.776 3.672-3.432 7.416-4.728 11.28a6.488 6.488 0 0 0-.183.617l-.033.127a25.837 25.837 0 0 0 2.808-2.328c3.494-3.387 6.698-7.006 9.907-10.631l1.085-1.225c1.868-2.108 3.664-4.277 5.46-6.445.626-.756 1.252-1.512 1.88-2.265C58.802 8.1 47.097 0 33.5 0 14.998 0 0 14.998 0 33.5c0 .642.018 1.28.054 1.913a330.058 330.058 0 0 1 7.674-16.277c.36-.696.744-1.344 1.2-1.968.408-.552.888-.672 1.536-.48.6.192 1.128.528 1.608.936.624.528.84 1.152.552 1.968-.906 2.853-2.11 5.577-3.312 8.295l-.216.489c-.624 1.416-1.248 2.832-1.752 4.296.232-.288.461-.579.69-.87a54.59 54.59 0 0 1 1.398-1.722A174.92 174.92 0 0 1 20.52 18.056c.247-.23.507-.433.77-.64.096-.073.19-.148.286-.224 1.056-.84 2.136-.816 3.264-.192 1.872 1.008 2.4 2.16 1.992 4.224-.316 1.537-.93 2.967-1.542 4.391l-.114.265c-.881 2.027-1.843 3.993-2.812 5.972l-.26.532a2.31 2.31 0 0 1-.048.08c-.094.15-.205.328-.144.592.112-.133.22-.257.324-.376.14-.16.272-.312.396-.464.686-.783 1.37-1.57 2.052-2.355 2.856-3.285 5.712-6.57 8.772-9.669 1.2-1.2 2.448-2.328 3.816-3.312 1.104-.792 2.136-.816 3.24-.096 1.152.744 1.8 1.68 1.56 3.12-.432 2.616-1.464 5.016-2.712 7.32-1.24 2.285-2.56 4.529-3.883 6.775a320.295 320.295 0 0 0-2.837 4.889c-2.352 4.152-4.68 8.304-6.6 12.672-.603 1.343-1.064 2.733-1.524 4.12-.108.322-.215.646-.324.968-.192.504-.24 1.032-.216 1.56 0 .768-.288.96-1.008.696-1.392-.528-2.256-2.16-1.848-3.72.816-3.168 1.824-6.288 3.096-9.312 2.832-6.768 6.192-13.248 9.888-19.584.768-1.344 1.488-2.712 2.064-4.152-1.416 1.176-2.712 2.472-3.96 3.792-4.044 4.374-7.89 8.918-11.734 13.458-1.175 1.388-2.35 2.776-3.53 4.158-.247.305-.415.654-.583 1.004-.11.229-.22.458-.353.676-.192.336-.396.672-.6 1.008-.204.336-.408.672-.6 1.008-.288.528-.696.624-1.224.408-1.512-.648-1.752-1.344-1.56-2.52.36-1.92 1.128-3.696 1.896-5.448 1.466-3.36 3.068-6.652 4.67-9.944a451.853 451.853 0 0 0 2.722-5.656c.36-.744.672-1.536.936-2.376l-.298.268c-.187.165-.37.327-.542.5-5.184 4.968-9.792 10.44-13.944 16.296a97.782 97.782 0 0 1-5.245 6.747C7.05 58.081 19.233 67 33.5 67Z" fill="#FD6F00"/></svg>