<svg xmlns="http://www.w3.org/2000/svg" viewBox="0 0 74 82" style="enable-background:new 0 0 74 82" xml:space="preserve"><path d="M61.5.1c.7.5 1.1 1.2 1.1 2.2v20.1c-.1.8-.6 1.5-1.4 1.5s-1.4-.6-1.5-1.5V12H14.5v4.4h32.3c1.6 0 2 .5 2 2.2v21.8c0 1.6-.4 2.1-1.9 2.1H14.4v36h45.1v-5.4H27.1c-1.7 0-2.1-.5-2.1-2.3V49c0-1.5.5-2.1 1.9-2.1h32.5v-10c0-.9.3-1.5 1.1-1.7 1-.3 1.8.5 1.8 1.7V47h9.6c.8 0 1.6.2 2 1.2v23.9c-.4.9-1.1 1.2-1.9 1.2h-9.6v6.4c0 .9-.2 1.6-1.1 2.2H12.6c-.7-.5-1.1-1.2-1.1-2.2V42.6H1.8c-1.3 0-1.8-.6-1.8-2V18.3c0-1.4.5-2 1.8-2h9.9V2.2c0-.9.2-1.7 1.1-2.2l48.7.1zM3 39.2h43.1V19.6H3v19.6zM28.2 70h43.1V50.3H28.2V70zm20-66.6H14.5v5.4h33.7V3.4zm11.4 0h-8.5v5.4h8.5V3.4z" style="fill:#fd6f00"/><path d="M61.2 31.6c1.1 0 2-1 2-2.2l-2.1-2.1c-1.1 0-1.9 1-1.9 2.2.1 1.2.9 2.1 2 2.1zm1.9-2.2c0-1.2-1-2.2-2.1-2.1l2.1 2.1z" style="fill:#fd6f00;stroke:#fd6f00"/><path d="M13.4 24h4.9c1.2 0 1.7.6 1.7 1.9V33c0 1.3-.5 1.9-1.7 1.9H8.8c-1.2 0-1.7-.6-1.7-1.9v-7.1c0-1.3.5-1.9 1.7-1.9h4.6zm3.6 7.6v-4.4h-7v4.4h7zm16-4.4h-7.5c-.8-.1-1.5-.7-1.5-1.6 0-.9.6-1.5 1.5-1.5h14.2c1.6 0 2.3.5 2.2 1.6 0 1-.7 1.6-2.2 1.6-2.1-.1-4.4-.1-6.7-.1zm0 4.5h7.4c.8 0 1.5.7 1.5 1.6 0 .8-.6 1.5-1.4 1.6H25.6c-1 0-1.6-.7-1.6-1.6 0-.9.6-1.6 1.6-1.6H33zm5.6 33.7h-4.9c-1.1 0-1.6-.6-1.7-1.9v-7.1c0-1.3.5-1.9 1.7-1.9h9.6c1.2 0 1.7.6 1.7 1.9v7.1c0 1.3-.5 1.9-1.7 1.9h-4.7zM35 62.2h7.1v-4.3H35v4.3zm23.2-4.3H51c-1.1 0-1.7-.6-1.7-1.5s.6-1.6 1.8-1.6h14.4c1.1 0 1.7.6 1.7 1.5s-.6 1.6-1.8 1.6h-7.2zm0 7.5H51c-1.1 0-1.8-.6-1.8-1.6 0-.9.6-1.5 1.7-1.5h14.5c1 0 1.6.6 1.7 1.4.1.7-.3 1.5-1.1 1.7-.2.1-.5.1-.7.1-2.3-.1-4.7-.1-7.1-.1z"/></svg>