<svg version="1.1" id="Layer_1" xmlns="http://www.w3.org/2000/svg" x="0" y="0" viewBox="0 0 74 82" style="enable-background:new 0 0 74 82" xml:space="preserve"><style>.st0{fill:#fd6f00}</style><path class="st0" d="M49.6 82H24.3c-1-.6-1.3-1.2-1.1-2.1.2-.8.9-1.1 2.1-1.1h3.3c.5-3 1.1-5.9 1.6-8.9H9.7c-.7 0-1.5 0-2.3-.2-4.5-.9-7.4-4.4-7.4-8.8V27.7c0-5.5 3.9-9.3 9.5-9.3h2.4V5.1c0-2.4 1.3-4.2 3.7-4.9.1 0 .2-.1.4-.2h42.1c3.3 1.3 4.1 2.5 4.1 6v12.3h2.5c5.4 0 9.3 3.8 9.3 9.1v33.3c0 .8-.1 1.6-.2 2.3-1 4.2-4.5 6.8-9.1 6.8H43.9c.6 3 1.1 6 1.6 8.9h3.7c1 0 1.7.8 1.6 1.8-.1.8-.6 1.2-1.2 1.5zM15.2 11.7v46.7h43.5V11.7H15.2zm55.3 50H3.3c.1.4.2.8.3 1.1.8 2.5 3 3.9 5.9 3.9h55.8c2.7-.2 4.9-2.2 5.2-5zm-58.7-3.3V29.9H3.3v28.4h8.5zm58.7 0V29.9H62v28.4h8.5zm-55.3-50h43.5c0-.1.1-.2.1-.2V5.6c0-1.7-.5-2.2-2.3-2.2H16.8c-.9.1-1.5.6-1.5 1.4-.2 1.2-.1 2.4-.1 3.6zm26.9 70.4c-.5-2.9-1-5.6-1.6-8.4 0-.2-.3-.4-.5-.4h-6.5c-.5 3-1.1 5.9-1.6 8.9l10.2-.1zM11.8 26.7v-5c-5-.5-8.4 1.6-8.4 5h8.4zm50.3 0h8.4c-.1-2.3-2-4.5-4.3-4.9-1.3-.2-2.8-.2-4.2-.3l.1 5.2z"/><path d="M17.2 38.6V26c0-2.7 1.5-4.2 4.2-4.2h7.1c2.5 0 4 1.5 4.1 3.9v25.7c0 2.4-1.6 3.9-4 3.9h-7.3c-2.5 0-4-1.6-4-3.9-.1-4.2-.1-8.5-.1-12.8zm12.2.1V26.1c0-.7-.1-1.1-1-1.1h-6.9c-.7 0-.9.3-.9 1v25.2c0 .7.3.9 1 .9h6.7c1.1 0 1.2-.1 1.2-1.2-.1-4-.1-8.1-.1-12.2zM46 21.9h6.6c2.4 0 4 1.5 4 3.8v8.1c0 2.3-1.5 3.8-3.9 3.9H39.4c-2.4 0-3.9-1.6-3.9-4v-7.8c0-2.4 1.6-4 4.1-4H46zm-7.4 7.5c.7-.6 1.3-1.1 1.8-1.5 1.4-1.1 3.3-1.1 4.8 0l1.5 1.2c.6.6 1.1.5 1.6 0 1.2-1.2 2.8-1.4 4.4-.7.1 0 .2.1.4.1v-2.8c0-.5-.3-.7-.8-.7h-13c-.6 0-.8.2-.8.8.1 1.2.1 2.3.1 3.6zm7.3 5.1h6.4c.3 0 .9-.3.9-.4.1-.6.4-1.3-.3-1.8-1.1-.7-2-.8-2.7-.3-1.6 1.3-3.6 1.3-5.2 0-.5-.4-.9-.7-1.3-1.1-.5-.5-.9-.5-1.4 0-.9.8-2 1.6-3 2.4-.2.2-.4.6-.5.9.3.1.7.4 1 .4 2-.1 4-.1 6.1-.1zm0 20.9h-6.5c-2.6 0-4.1-1.6-4.1-4.1v-7.8c0-2.4 1.5-3.9 4-4h13.2c2.4 0 3.9 1.5 4 3.8v8.2c0 2.3-1.6 3.8-4 3.8-2.1.1-4.4.1-6.6.1zm5.2-3.2h1.1c1 0 1.1-.1 1.1-1.1v-7.3c0-.7-.3-1-1-1H39.7c-.8 0-1 .3-1 1v6.6c0 1.8 0 1.8 1.8 1.7.1 0 .1 0 .3-.1.1-1.7-.2-3.5 1.1-4.9 1.4-1.4 3.2-1.3 4.9-1.3 1 0 2 .4 2.8 1.1 1.7 1.5 1.5 3.4 1.5 5.3zm-3.3 0v-2.1c0-.6-.4-1-1-.9-.9.1-2.2-.6-2.6.7-.2.7 0 1.5 0 2.4l3.6-.1z"/><path class="st0" d="M40.1 19H25.7c-1.2 0-2-.6-2-1.5 0-.8.5-1.5 1.3-1.6h30c.8.1 1.3.7 1.3 1.5s-.5 1.5-1.3 1.6c-.3.1-.7.1-1 .1-4.5-.1-9.1-.1-13.9-.1zm-22.9-1.6c0-.9.7-1.6 1.6-1.6.9 0 1.6.7 1.6 1.5 0 .9-.7 1.6-1.6 1.6-.8.1-1.6-.6-1.6-1.5zm37.3-13h1.1c.8.1 1.4.7 1.4 1.5.1.7-.4 1.5-1.2 1.6-1 .1-2.1.1-3 0-.8-.1-1.2-.9-1.2-1.7.1-.8.7-1.3 1.5-1.4.6-.1 1-.1 1.4 0z"/><path d="M24.8 35.2H23c-.9 0-1.6-.7-1.6-1.6 0-.8.7-1.6 1.6-1.6h3.8c.9 0 1.6.7 1.5 1.6 0 .9-.6 1.5-1.6 1.6h-1.9zm.1 7.5h1.7c1 0 1.7.7 1.7 1.6 0 .9-.7 1.6-1.7 1.6h-3.7c-.9 0-1.6-.7-1.6-1.6 0-.9.7-1.5 1.7-1.6h1.9zm0-16.1h1.8c.9.1 1.5.7 1.5 1.5s-.5 1.6-1.4 1.6c-1.3.1-2.7.1-4 0-.9 0-1.5-.8-1.5-1.6s.7-1.4 1.6-1.5h2zm-.1 13.9H23c-.9-.1-1.6-.7-1.6-1.6 0-.9.7-1.5 1.6-1.6h3.8c.9 0 1.6.7 1.6 1.6 0 .8-.6 1.5-1.5 1.6h-2.1zm.1 7.6h1.8c.9 0 1.5.7 1.6 1.5 0 .9-.6 1.6-1.5 1.6-1.3.1-2.7.1-3.9 0-.9 0-1.6-.8-1.5-1.6 0-.9.7-1.5 1.6-1.5h1.9z"/></svg>